<?xml version="1.0" standalone="no"?>
<!DOCTYPE svg PUBLIC "-//W3C//DTD SVG 20010904//EN"
 "http://www.w3.org/TR/2001/REC-SVG-20010904/DTD/svg10.dtd">
<svg version="1.0" xmlns="http://www.w3.org/2000/svg"
 width="1024.000000pt" height="1024.000000pt" viewBox="0 0 1024.000000 1024.000000"
 preserveAspectRatio="xMidYMid meet">

<g transform="translate(0.000000,1024.000000) scale(0.100000,-0.100000)"
fill="#000000" stroke="none">
<path d="M3313 9236 c-185 -45 -346 -203 -382 -374 -18 -85 -14 -195 10 -265
76 -229 322 -379 568 -348 87 11 131 25 221 71 109 55 161 41 385 -103 187
-121 299 -205 404 -302 l100 -92 162 38 c90 21 170 40 179 42 8 2 -4 12 -30
22 -173 72 -380 191 -640 366 -300 203 -326 228 -316 309 19 151 18 218 -3
288 -25 82 -85 176 -147 231 -54 47 -171 105 -242 120 -69 14 -203 13 -269 -3z
m250 -111 c128 -33 224 -112 277 -227 31 -64 34 -82 34 -153 -1 -156 -77 -269
-227 -341 -294 -139 -636 66 -615 368 18 246 278 419 531 353z"/>
<path d="M2965 8080 c-33 -5 -91 -20 -128 -34 -163 -61 -261 -163 -327 -338
-20 -54 -57 -88 -95 -88 -33 0 -159 -75 -206 -123 -109 -111 -134 -267 -43
-267 19 0 30 12 54 60 57 113 128 170 215 172 53 1 88 -20 111 -65 128 -252
461 -359 733 -236 87 40 159 97 207 165 106 152 113 154 462 191 366 38 635
38 897 0 293 -43 402 -55 640 -72 503 -36 884 -67 1115 -90 572 -58 960 -94
1025 -97 64 -3 70 -1 73 17 3 22 8 21 -453 139 -500 129 -1230 274 -2020 401
-181 30 -161 31 -470 -30 -355 -70 -431 -84 -600 -105 -222 -29 -398 -36 -465
-20 -62 15 -121 63 -152 124 -107 211 -334 327 -573 296z m182 -124 c87 -23
145 -57 209 -120 222 -221 76 -563 -259 -608 -73 -10 -95 -9 -153 5 -142 35
-247 117 -302 234 -39 84 -38 185 3 268 85 176 307 273 502 221z m2151 -269
c29 -27 30 -82 0 -114 -34 -36 -98 -32 -132 8 -29 34 -31 47 -14 85 24 53 99
64 146 21z"/>
<path d="M5266 7391 c5 -4 27 -13 49 -20 53 -18 832 -323 1435 -562 630 -249
594 -236 614 -219 34 27 14 50 -89 104 -184 97 -597 312 -925 482 l-325 168
-150 8 c-136 7 -500 33 -584 42 -18 2 -29 1 -25 -3z"/>
<path d="M7764 6325 c-206 -37 -374 -110 -547 -237 -215 -158 -396 -404 -481
-651 -58 -170 -71 -254 -70 -482 0 -202 1 -215 31 -330 89 -344 264 -581 547
-743 109 -63 218 -103 361 -134 151 -32 430 -32 575 0 306 67 533 214 686 443
48 72 135 258 128 271 -5 8 -92 48 -105 48 -5 0 -25 -33 -45 -72 -130 -258
-322 -423 -569 -489 -106 -28 -298 -31 -400 -6 -311 78 -547 374 -632 794 -14
69 -18 138 -18 318 0 203 3 243 24 339 59 276 154 463 307 604 139 128 260
176 449 177 143 0 199 -12 320 -70 191 -91 341 -283 451 -575 l32 -85 66 -3
66 -3 0 437 0 437 -31 -7 c-17 -3 -35 -6 -39 -6 -5 0 -22 -25 -40 -56 -71
-126 -116 -134 -274 -49 -112 60 -242 106 -366 129 -99 19 -324 20 -426 1z"/>
<path d="M5101 6308 c-144 -20 -245 -71 -347 -172 -123 -124 -170 -253 -161
-446 6 -137 30 -228 93 -358 25 -52 44 -95 42 -96 -60 -31 -258 -177 -325
-240 -191 -180 -275 -353 -276 -566 0 -172 57 -321 170 -441 162 -171 394
-248 663 -220 212 22 377 94 545 237 l64 54 76 -75 c92 -91 174 -148 263 -183
58 -22 82 -26 177 -26 109 -1 113 0 187 37 59 29 92 54 150 115 40 44 83 97
96 120 l22 40 -46 32 -47 31 -26 -24 c-78 -73 -176 -82 -281 -26 -73 38 -201
159 -273 257 l-46 63 33 47 c53 74 123 200 228 413 86 174 104 202 153 247 53
49 141 92 185 92 18 0 20 7 20 60 l0 60 -360 0 -360 0 0 -59 0 -58 63 -7 c112
-13 167 -58 167 -138 0 -52 -44 -185 -99 -303 -49 -103 -116 -215 -129 -215
-4 1 -51 60 -104 133 -53 73 -174 236 -267 362 -94 127 -171 236 -171 243 0 6
5 12 11 12 19 0 172 104 246 169 83 72 156 163 190 239 66 149 41 342 -60 458
-86 99 -293 157 -466 132z m162 -177 c88 -38 137 -132 137 -266 0 -156 -64
-267 -225 -391 -62 -47 -78 -55 -86 -43 -130 199 -194 395 -169 522 21 108 71
169 161 196 45 14 127 5 182 -18z m-417 -1083 c123 -196 302 -449 483 -678
l130 -165 -40 -36 c-99 -89 -221 -140 -349 -147 -170 -9 -304 41 -406 151 -73
78 -109 143 -134 243 -56 220 3 410 182 587 48 48 93 87 98 87 5 0 22 -19 36
-42z"/>
<path d="M1310 6231 l0 -68 98 -5 c118 -6 176 -31 244 -106 82 -92 78 -38 78
-1036 0 -980 2 -951 -66 -1026 -49 -54 -105 -77 -208 -86 l-86 -7 0 -53 0 -54
470 0 470 0 0 54 0 53 -93 5 c-142 8 -215 49 -261 148 -21 44 -21 56 -24 860
-2 809 -2 815 17 795 20 -20 143 -173 740 -915 174 -217 402 -500 507 -629
104 -129 212 -264 241 -300 l52 -66 155 -5 156 -5 0 1070 c0 935 2 1078 16
1130 19 74 34 97 85 134 39 29 55 33 167 47 l53 6 -3 62 -3 61 -440 0 -440 0
0 -65 0 -65 90 -6 c103 -7 146 -22 197 -70 68 -65 67 -56 70 -867 2 -397 0
-721 -4 -720 -4 2 -33 37 -65 79 -32 42 -166 216 -297 385 -132 170 -307 397
-390 504 -82 107 -209 272 -281 365 -72 94 -182 236 -244 318 l-112 147 -445
0 -444 0 0 -69z"/>
<path d="M4699 3230 l-47 -80 88 0 87 0 49 73 c27 39 51 75 52 80 2 4 -38 7
-90 7 l-93 -1 -46 -79z"/>
<path d="M2995 3071 c-124 -35 -188 -112 -188 -226 0 -70 17 -109 67 -152 31
-28 74 -47 237 -107 52 -19 85 -49 94 -87 5 -21 0 -34 -23 -59 -24 -28 -37
-34 -84 -38 -69 -5 -113 8 -173 54 -51 40 -46 41 -116 -28 l-38 -36 42 -39
c59 -54 104 -80 172 -98 74 -19 116 -19 189 0 128 34 199 121 199 246 0 124
-65 190 -246 249 -112 37 -160 70 -155 108 8 69 127 87 222 33 l54 -30 51 59
51 59 -33 25 c-61 46 -125 68 -211 72 -45 2 -94 -1 -111 -5z"/>
<path d="M6932 3065 c-199 -56 -317 -233 -299 -449 20 -238 248 -407 498 -369
76 12 183 59 218 97 l20 21 -50 57 -50 57 -46 -29 c-125 -80 -286 -56 -360 53
-70 104 -66 232 10 330 77 100 236 114 345 30 l35 -26 60 63 59 64 -28 24
c-16 13 -58 38 -94 54 -55 26 -79 31 -165 34 -69 3 -117 -1 -153 -11z"/>
<path d="M1990 2665 l0 -405 265 0 266 0 -3 78 -3 77 -172 3 -173 2 0 85 0 85
155 0 155 0 0 75 0 75 -155 0 -155 0 0 85 0 86 168 -2 167 -1 3 81 3 81 -261
0 -260 0 0 -405z"/>
<path d="M3600 2990 l0 -80 115 0 115 0 0 -325 0 -325 90 0 90 0 0 326 0 325
110 -2 c60 -1 110 1 110 5 0 3 0 40 0 81 l0 75 -315 0 -315 0 0 -80z"/>
<path d="M4500 2665 l0 -405 265 0 266 0 -3 78 -3 77 -160 2 c-88 1 -166 2
-172 2 -9 1 -13 25 -13 86 l0 85 150 0 150 0 0 75 0 75 -150 0 -150 0 0 85 0
86 165 -3 165 -3 0 83 0 82 -255 0 -255 0 0 -405z"/>
<path d="M5260 2990 l0 -80 115 0 115 0 0 -325 0 -325 90 0 90 0 0 326 0 326
113 -4 112 -3 0 82 0 83 -317 0 -318 0 0 -80z"/>
<path d="M6170 2665 l0 -405 90 0 90 0 0 405 0 405 -90 0 -90 0 0 -405z"/>
<path d="M7853 3013 c-21 -56 -264 -700 -278 -735 -7 -16 1 -18 87 -18 l94 0
29 85 30 85 156 0 156 0 29 -85 29 -85 92 0 c51 0 93 2 93 4 0 3 -53 146 -119
318 -65 172 -133 352 -152 401 l-32 87 -97 0 -96 0 -21 -57z m123 -441 c-54
-1 -101 0 -104 2 -5 5 53 179 86 256 l14 34 52 -144 51 -145 -99 -3z"/>
</g>
</svg>
